<?xml version="1.0" standalone="no"?>
<svg viewBox="0 0 200 200" xmlns="http://www.w3.org/2000/svg">
  <path fill="#FFD6E8" d="M35.3,-61.6C46.4,-54.7,56.5,-46.5,66.1,-36.1C75.8,-25.6,84.9,-12.8,85.2,0.1C85.4,13.1,76.7,26.2,65.7,34.2C54.6,42.3,41.2,45.2,29.9,51.2C18.6,57.2,9.3,66.2,-3.4,72.1C-16.1,78,-32.2,80.8,-40.8,73.2C-49.4,65.7,-50.4,47.7,-53.1,33.8C-55.8,19.8,-60.1,9.9,-61.9,-1C-63.7,-12,-63,-24,-60.5,-38.3C-58.1,-52.6,-53.8,-69.1,-43.4,-76.5C-33,-83.8,-16.5,-82,-2.2,-78.2C12.1,-74.3,24.2,-68.5,35.3,-61.6Z" transform="translate(100 100)" />
</svg>
