<?xml version="1.0" standalone="no"?>
<svg viewBox="0 0 200 200" xmlns="http://www.w3.org/2000/svg">
  <path fill="#40A2D8" d="M44.5,-77.4C58.2,-69.1,70.2,-58.3,78,-45C85.7,-31.6,89.2,-15.8,89.9,0.4C90.6,16.6,88.5,33.3,80.6,46.3C72.7,59.3,58.9,68.7,44.5,75.1C30.1,81.5,15,84.8,-0.7,86.1C-16.4,87.3,-32.9,86.4,-46.9,79.8C-61,73.2,-72.7,61,-80.3,46.7C-87.8,32.5,-91.3,16.2,-91.6,-0.2C-91.9,-16.6,-89.1,-33.2,-81.3,-47C-73.5,-60.8,-60.7,-71.9,-46.3,-79.7C-31.9,-87.6,-16,-92.3,-0.3,-91.8C15.4,-91.3,30.8,-85.6,44.5,-77.4Z" transform="translate(100 100)" />
</svg>
